<?xml version="1.0" standalone="no"?>
<!DOCTYPE svg PUBLIC "-//W3C//DTD SVG 20010904//EN"
 "http://www.w3.org/TR/2001/REC-SVG-20010904/DTD/svg10.dtd">
<svg version="1.0" xmlns="http://www.w3.org/2000/svg"
 width="909.000000pt" height="733.000000pt" viewBox="0 0 909.000000 733.000000"
 preserveAspectRatio="xMidYMid meet">

<g transform="translate(0.000000,733.000000) scale(0.100000,-0.100000)"
fill="#ffffff" stroke="none">
<path d="M4390 6014 c-361 -44 -617 -146 -890 -355 -116 -89 -140 -151 -80
-211 28 -27 36 -30 79 -26 37 4 60 14 92 40 180 147 413 259 654 316 98 23
132 26 300 27 145 0 214 -4 290 -19 244 -45 502 -159 679 -300 53 -43 112 -43
155 -2 24 23 31 38 31 68 0 51 -41 95 -155 171 -206 136 -439 228 -690 272
-87 16 -391 28 -465 19z"/>
<path d="M6582 5899 c-29 -5 -77 -21 -105 -35 -46 -22 -422 -279 -752 -513
-60 -43 -119 -83 -130 -88 -12 -7 -212 -15 -510 -22 -269 -6 -749 -18 -1065
-26 -316 -8 -784 -19 -1040 -25 -256 -6 -579 -14 -717 -18 l-253 -7 -26 -26
c-32 -32 -35 -90 -8 -121 45 -49 34 -48 666 -48 580 0 596 -1 743 -24 83 -14
251 -41 375 -60 819 -130 976 -158 999 -181 7 -7 11 -20 8 -28 -3 -8 -56 -50
-119 -92 -394 -272 -488 -335 -500 -335 -14 0 -169 43 -413 115 -240 71 -231
69 -264 55 -27 -11 -61 -61 -61 -90 0 -29 35 -71 105 -126 296 -229 425 -335
425 -351 0 -4 15 -80 34 -168 19 -88 46 -218 61 -290 30 -148 52 -185 111
-185 35 0 89 38 99 69 3 10 30 163 59 341 30 177 58 326 63 329 5 3 115 77
244 164 129 87 256 174 283 193 58 41 70 42 101 9 18 -20 35 -75 75 -243 28
-119 91 -379 140 -577 49 -198 107 -441 130 -540 62 -268 66 -280 101 -309 47
-40 112 -31 146 21 17 26 18 87 23 1078 4 829 8 1055 18 1072 7 13 250 181
540 374 546 363 613 414 653 503 23 51 24 124 3 155 -32 45 -140 68 -242 50z"/>
<path d="M6045 4936 c-42 -42 -42 -70 -2 -186 20 -58 43 -147 52 -199 17 -109
31 -135 80 -151 43 -14 82 -6 113 22 18 18 22 32 22 82 0 121 -74 367 -126
423 -40 43 -101 47 -139 9z"/>
<path d="M2938 4845 c-65 -36 -138 -306 -138 -512 l0 -72 -199 -3 c-180 -3
-201 -5 -220 -22 -46 -42 -43 -117 6 -156 25 -19 41 -20 359 -20 l332 0 31 26
c26 22 31 33 31 69 0 59 -30 94 -88 102 l-42 6 0 53 c0 78 28 266 50 337 35
111 25 168 -35 193 -42 17 -53 17 -87 -1z"/>
<path d="M1920 4241 c-33 -33 -45 -69 -36 -107 11 -43 59 -84 98 -84 48 0 94
32 108 74 35 106 -94 194 -170 117z"/>
<path d="M5838 4245 c-35 -20 -48 -44 -48 -93 0 -33 6 -45 31 -66 l31 -26 739
0 740 0 24 25 c35 34 35 102 1 142 l-24 28 -734 2 c-633 2 -737 0 -760 -12z"/>
<path d="M6120 3938 c-23 -16 -48 -51 -79 -113 l-46 -90 -60 -3 c-84 -3 -103
-9 -131 -39 -35 -38 -33 -95 5 -134 l29 -29 271 0 c291 0 312 3 337 51 27 52
8 115 -41 137 -14 7 -59 12 -100 12 l-74 0 19 43 c30 64 26 109 -11 146 -17
17 -37 31 -44 31 -7 0 -20 2 -27 5 -8 3 -29 -5 -48 -17z"/>
<path d="M2218 3714 c-34 -18 -48 -43 -48 -84 0 -42 15 -67 50 -85 25 -13 110
-15 600 -15 l572 0 29 29 c50 51 37 130 -26 157 -52 21 -1137 20 -1177 -2z"/>
<path d="M3224 3372 c-29 -23 -44 -54 -44 -89 0 -94 351 -390 603 -508 409
-192 870 -225 1294 -90 126 39 166 104 107 174 -42 51 -80 55 -192 20 -162
-50 -257 -63 -457 -63 -148 0 -198 4 -285 23 -213 45 -402 124 -570 236 -98
65 -293 232 -303 260 -9 23 -68 55 -102 55 -16 0 -40 -8 -51 -18z"/>
<path d="M1870 1823 c-8 -3 -25 -15 -37 -26 -32 -29 -29 -71 10 -164 19 -43
85 -208 147 -368 62 -159 122 -300 133 -312 25 -28 67 -30 95 -5 24 19 95 187
314 736 21 55 18 86 -12 116 -22 22 -79 27 -111 10 -26 -14 -36 -37 -140 -298
-50 -125 -92 -228 -94 -230 -2 -2 -69 164 -160 400 -21 54 -48 106 -59 117
-23 22 -63 33 -86 24z"/>
<path d="M5831 1819 c-62 -11 -152 -56 -209 -105 -120 -102 -175 -305 -127
-466 20 -70 81 -165 138 -214 87 -75 241 -124 346 -108 113 17 213 69 257 133
22 33 24 45 24 174 0 133 -1 139 -25 162 -23 24 -28 25 -170 25 -142 0 -147
-1 -170 -25 -32 -31 -32 -75 -1 -112 22 -25 31 -28 104 -31 76 -4 81 -5 87
-29 12 -50 -79 -113 -165 -113 -85 0 -187 68 -232 154 -28 55 -34 133 -14 193
51 152 221 221 368 150 53 -25 60 -26 90 -14 41 17 56 35 64 74 5 26 0 37 -31
71 -63 70 -203 104 -334 81z"/>
<path d="M3020 1800 c-196 -72 -316 -261 -297 -467 9 -87 57 -190 126 -265
222 -243 638 -150 744 167 74 216 -21 444 -227 545 -63 31 -77 34 -180 37 -93
3 -120 0 -166 -17z m227 -175 c60 -18 135 -81 165 -138 59 -117 -3 -275 -134
-343 -41 -21 -133 -29 -184 -15 -151 41 -230 222 -159 367 30 61 71 96 142
124 59 23 104 25 170 5z"/>
<path d="M3796 1795 c-44 -41 -36 -77 44 -199 38 -58 96 -148 130 -201 l60
-96 0 -155 0 -156 29 -29 c48 -47 119 -37 139 19 5 16 11 96 11 178 l2 149 76
120 c42 66 93 147 114 180 37 59 69 125 69 144 0 5 -12 23 -26 40 -21 25 -33
31 -66 31 -52 0 -73 -23 -174 -190 -44 -71 -81 -130 -84 -130 -3 0 -41 58 -85
127 -108 171 -127 193 -175 193 -26 0 -45 -8 -64 -25z"/>
<path d="M4887 1808 c-9 -7 -52 -94 -95 -193 -44 -99 -120 -273 -171 -386 -50
-114 -91 -217 -91 -228 0 -34 44 -71 83 -71 48 0 77 27 116 109 l35 71 163 0
163 0 34 -67 c50 -100 95 -134 149 -114 14 6 33 24 42 41 16 31 15 32 -145
406 -88 206 -160 378 -160 383 0 4 -11 20 -25 35 -26 28 -70 35 -98 14z m71
-393 c11 -27 28 -67 36 -87 l16 -38 -84 0 -84 0 42 94 c22 52 44 91 48 88 4
-4 16 -29 26 -57z"/>
<path d="M6557 1808 c-34 -26 -37 -66 -37 -446 0 -326 2 -381 16 -400 15 -22
18 -22 280 -22 l266 0 29 29 c37 37 38 79 4 113 -31 31 -79 38 -272 38 l-143
0 0 79 0 79 136 4 136 3 29 33 c40 45 40 91 -2 126 -30 25 -35 26 -165 26
l-134 0 0 85 0 85 183 0 c162 0 185 2 214 19 39 24 51 67 29 110 -9 17 -25 35
-35 41 -30 15 -513 13 -534 -2z"/>
</g>
</svg>
